<mxfile host="drawio-plugin" modified="2022-12-23T21:30:27.191Z" agent="5.0 (Macintosh; Intel Mac OS X 10_15_7) AppleWebKit/537.36 (KHTML, like Gecko) Chrome/104.0.5112.102 Safari/537.36" etag="ZYno3t6NAv7aKLR8jmsG" version="20.5.3" type="embed"><diagram id="23iRSUPoRavnBvh4doch" name="Page-1"><mxGraphModel dx="561" dy="772" grid="1" gridSize="10" guides="1" tooltips="1" connect="1" arrows="1" fold="1" page="1" pageScale="1" pageWidth="827" pageHeight="1169" math="0" shadow="0"><root><mxCell id="0"/><mxCell id="1" parent="0"/><mxCell id="4" value="chan tems" style="rounded=1;whiteSpace=wrap;html=1;" vertex="1" parent="1"><mxGeometry x="230" y="180" width="120" height="60" as="geometry"/></mxCell><mxCell id="8" value="isNode" style="rhombus;whiteSpace=wrap;html=1;" vertex="1" parent="1"><mxGeometry x="250" y="320" width="80" height="80" as="geometry"/></mxCell><mxCell id="10" value="" style="endArrow=classic;html=1;rounded=0;exitX=1;exitY=0.5;exitDx=0;exitDy=0;edgeStyle=orthogonalEdgeStyle;entryX=0.5;entryY=0;entryDx=0;entryDy=0;" edge="1" parent="1" source="8" target="13"><mxGeometry width="50" height="50" relative="1" as="geometry"><mxPoint x="380" y="370" as="sourcePoint"/><mxPoint x="440" y="450" as="targetPoint"/><Array as="points"><mxPoint x="414" y="360"/></Array></mxGeometry></mxCell><mxCell id="12" value="Yes" style="edgeLabel;html=1;align=center;verticalAlign=middle;resizable=0;points=[];" vertex="1" connectable="0" parent="10"><mxGeometry x="0.4364" y="-1" relative="1" as="geometry"><mxPoint x="-43" y="-26" as="offset"/></mxGeometry></mxCell><mxCell id="13" value="PushNode" style="rounded=1;whiteSpace=wrap;html=1;" vertex="1" parent="1"><mxGeometry x="370" y="430" width="88" height="40" as="geometry"/></mxCell><mxCell id="14" value="No" style="endArrow=classic;html=1;rounded=0;exitX=0;exitY=0.5;exitDx=0;exitDy=0;entryX=0.5;entryY=0;entryDx=0;entryDy=0;edgeStyle=orthogonalEdgeStyle;" edge="1" parent="1" source="8" target="15"><mxGeometry x="-0.3548" width="50" height="50" relative="1" as="geometry"><mxPoint x="130" y="470" as="sourcePoint"/><mxPoint x="90" y="480" as="targetPoint"/><mxPoint as="offset"/></mxGeometry></mxCell><mxCell id="15" value="Queue" style="rounded=1;whiteSpace=wrap;html=1;" vertex="1" parent="1"><mxGeometry x="120" y="430" width="90" height="40" as="geometry"/></mxCell><mxCell id="17" value="" style="endArrow=classic;html=1;rounded=0;entryX=0.5;entryY=0;entryDx=0;entryDy=0;exitX=0.5;exitY=1;exitDx=0;exitDy=0;" edge="1" parent="1" source="4" target="8"><mxGeometry width="50" height="50" relative="1" as="geometry"><mxPoint x="370" y="380" as="sourcePoint"/><mxPoint x="290.0000000000001" y="149.9999999999999" as="targetPoint"/></mxGeometry></mxCell><mxCell id="21" value="moreItems" style="rhombus;whiteSpace=wrap;html=1;" vertex="1" parent="1"><mxGeometry x="125" y="560" width="80" height="80" as="geometry"/></mxCell><mxCell id="22" value="" style="endArrow=classic;html=1;rounded=0;exitX=0;exitY=0.5;exitDx=0;exitDy=0;edgeStyle=orthogonalEdgeStyle;entryX=0;entryY=0.5;entryDx=0;entryDy=0;" edge="1" parent="1" source="21" target="4"><mxGeometry width="50" height="50" relative="1" as="geometry"><mxPoint x="210" y="400" as="sourcePoint"/><mxPoint x="210" y="70" as="targetPoint"/><Array as="points"><mxPoint x="60" y="600"/><mxPoint x="60" y="210"/></Array></mxGeometry></mxCell><mxCell id="23" value="Yes" style="edgeLabel;html=1;align=center;verticalAlign=middle;resizable=0;points=[];" vertex="1" connectable="0" parent="22"><mxGeometry x="-0.8991" relative="1" as="geometry"><mxPoint as="offset"/></mxGeometry></mxCell><mxCell id="24" value="" style="endArrow=classic;html=1;rounded=0;exitX=0.5;exitY=1;exitDx=0;exitDy=0;entryX=0.5;entryY=0;entryDx=0;entryDy=0;" edge="1" parent="1" source="15" target="21"><mxGeometry width="50" height="50" relative="1" as="geometry"><mxPoint x="210" y="530" as="sourcePoint"/><mxPoint x="260" y="480" as="targetPoint"/></mxGeometry></mxCell><mxCell id="25" value="PushRelationsFromQueue" style="rounded=1;whiteSpace=wrap;html=1;" vertex="1" parent="1"><mxGeometry x="350" y="570" width="160" height="60" as="geometry"/></mxCell><mxCell id="26" value="" style="endArrow=classic;html=1;rounded=0;exitX=1;exitY=0.5;exitDx=0;exitDy=0;entryX=0;entryY=0.5;entryDx=0;entryDy=0;" edge="1" parent="1" source="21" target="25"><mxGeometry width="50" height="50" relative="1" as="geometry"><mxPoint x="310" y="530" as="sourcePoint"/><mxPoint x="360" y="480" as="targetPoint"/></mxGeometry></mxCell></root></mxGraphModel></diagram></mxfile>